PathFileType	4	(X/Y/Z)	C:/Users/opensim2020/Desktop/walking_exp_matlab/subject03_walking10_straight_01.trc	
DataRate	CameraRate	NumFrames	NumMarkers	Units	OrigDataRate	OrigDataStartFrame	OrigNumFrames	
100.00	100.00	5	45	mm	100.00	659	477	
Frame#	Time	LFHD			RFHD			LBHD			RBHD			C7			T10			CLAV			STRN			RBAK			LSHO			LUPA			LELB			LFRM			LWRA			LWRB			LFIN			RSHO			RUPA			RELB			RFRM			RWRA			RWRB			RFIN			LASI			RASI			LPSI			RPSI			LTHI			LKNE			LTIB			LANK			LHEE			LTOE			RTHI			RKNE			RTIB			RANK			RHEE			RTOE			*39			*40			*41			*42			*43			*44			
		X1	Y1	Z1	X2	Y2	Z2	X3	Y3	Z3	X4	Y4	Z4	X5	Y5	Z5	X6	Y6	Z6	X7	Y7	Z7	X8	Y8	Z8	X9	Y9	Z9	X10	Y10	Z10	X11	Y11	Z11	X12	Y12	Z12	X13	Y13	Z13	X14	Y14	Z14	X15	Y15	Z15	X16	Y16	Z16	X17	Y17	Z17	X18	Y18	Z18	X19	Y19	Z19	X20	Y20	Z20	X21	Y21	Z21	X22	Y22	Z22	X23	Y23	Z23	X24	Y24	Z24	X25	Y25	Z25	X26	Y26	Z26	X27	Y27	Z27	X28	Y28	Z28	X29	Y29	Z29	X30	Y30	Z30	X31	Y31	Z31	X32	Y32	Z32	X33	Y33	Z33	X34	Y34	Z34	X35	Y35	Z35	X36	Y36	Z36	X37	Y37	Z37	X38	Y38	Z38	X39	Y39	Z39	X40	Y40	Z40	X41	Y41	Z41	X42	Y42	Z42	X43	Y43	Z43	X44	Y44	Z44	X45	Y45	Z45	

1	0.000	1332.35071	-1406.30249	1621.69373	1464.09851	-1419.93811	1629.39258	1323.61340	-1537.13696	1589.06848	1453.91089	-1546.55225	1595.83325	1386.19592	-1583.95789	1431.33105	1398.05249	-1638.81067	1122.55444	1387.96484	-1463.62939	1349.82678	1383.34985	-1433.05945	1181.20984	1488.76733	-1644.13965	1261.83044	1232.63416	-1509.18433	1387.13867	1155.16406	-1508.97888	1194.27698	1137.17322	-1489.05676	1073.78235	1131.01501	-1446.53125	950.82721	1157.66394	-1412.82446	835.38776	1107.08838	-1436.96045	839.23608	1111.51550	-1410.41882	758.93640	1547.96936	-1509.22559	1380.13574	1626.67688	-1513.38782	1160.80322	1643.74402	-1499.31299	1049.44397	1651.05396	-1482.17700	913.57855	1619.49756	-1451.59802	817.48602	1662.88123	-1482.96777	813.26001	1656.12549	-1459.74084	742.69843	1278.97302	-1504.05591	939.65808	1512.99219	-1485.02002	952.16479	1342.09692	-1658.66663	982.20966	1488.62830	-1644.35925	993.57318	1256.87708	-1596.56116	643.85510	1304.53125	-1592.01917	470.46603	1308.68823	-1650.69666	281.05212	1349.79187	-1660.95422	72.14532	1396.64380	-1699.26123	35.05992	1345.23279	-1513.90710	34.53109	1574.16113	-1476.78857	670.42468	1546.64233	-1412.97876	502.29941	1552.47925	-1491.76575	325.80899	1510.60559	-1566.43494	123.33221	1455.15649	-1614.53601	101.70832	1504.32764	-1446.38293	47.48947																		 
2	0.010	1332.39099	-1404.27625	1621.79150	1464.00195	-1418.06750	1629.29724	1323.43579	-1535.29736	1588.82031	1453.79187	-1544.69580	1595.59680	1385.80176	-1581.79651	1431.04187	1397.50488	-1636.15405	1122.19031	1387.73108	-1461.33459	1349.73572	1382.97595	-1431.26294	1180.73926	1488.18335	-1641.90747	1261.42920	1232.31213	-1506.94360	1387.01038	1154.50879	-1505.78174	1194.44849	1136.38110	-1483.97754	1074.04199	1132.13281	-1440.75537	951.20410	1157.58911	-1404.93958	836.60077	1107.02893	-1429.16675	839.93616	1111.61902	-1401.81934	759.98895	1547.78271	-1507.27747	1379.99915	1626.45508	-1512.21362	1160.62927	1643.61096	-1498.61035	1049.27637	1650.91663	-1481.89404	913.37134	1619.23218	-1451.60437	817.04773	1662.72559	-1482.92505	813.04803	1655.79492	-1459.86914	742.25134	1278.48523	-1500.80884	939.52106	1512.62988	-1482.26099	952.11188	1341.64832	-1655.74048	981.84393	1488.14832	-1641.54565	993.18176	1256.50391	-1593.94983	643.36041	1304.21106	-1590.70679	470.52545	1308.44800	-1649.81433	281.07864	1352.99182	-1664.85449	70.12769	1396.63220	-1699.27722	35.12791	1345.17029	-1514.06116	34.44255	1573.05774	-1472.81714	670.67029	1545.21765	-1408.84509	502.63882	1551.84351	-1483.66406	324.13678	1510.92200	-1553.14160	119.67026	1455.74280	-1600.95313	96.81766	1504.05090	-1431.15198	46.62327																		 
3	0.020	1332.34058	-1402.71094	1621.58960	1464.04382	-1416.24243	1629.22729	1323.38538	-1533.42261	1588.69812	1453.70813	-1542.81042	1595.23669	1385.42334	-1579.56616	1430.74182	1396.99976	-1633.39270	1121.80627	1387.69067	-1458.94568	1349.65308	1382.63098	-1428.51306	1180.83044	1487.60718	-1639.59155	1260.97729	1232.06018	-1504.41675	1386.64136	1154.09717	-1501.74634	1194.24390	1135.85840	-1478.80920	1074.21594	1131.91638	-1434.27209	951.86841	1157.14099	-1398.18384	837.17542	1107.12183	-1421.20923	840.59583	1112.04785	-1393.11682	760.93695	1547.56665	-1505.40515	1379.83850	1626.29248	-1510.96411	1160.47070	1643.45227	-1497.75281	1049.02429	1650.73340	-1481.46057	913.04462	1618.86633	-1451.64478	816.62659	1662.51013	-1482.78064	812.77734	1655.53870	-1460.07056	741.87994	1278.33240	-1497.98547	939.27142	1512.27991	-1479.30750	952.03937	1341.15466	-1652.81421	981.47858	1487.67883	-1638.66882	992.76276	1256.12854	-1591.55920	643.04742	1303.90088	-1589.07849	470.31158	1308.28821	-1648.97998	281.15155	1350.27441	-1661.53247	71.76519	1396.57263	-1699.24146	35.15694	1344.90820	-1515.27661	34.28452	1572.16992	-1469.00342	670.83203	1544.01978	-1404.85571	502.77618	1550.85510	-1475.14368	322.27963	1511.06018	-1539.38940	115.78117	1456.21594	-1586.93799	91.95309	1503.59583	-1415.70557	45.87755																		 
4	0.030	1332.43652	-1400.83459	1621.44312	1464.08667	-1414.39392	1629.05469	1323.42175	-1531.23694	1588.37842	1453.69006	-1540.81958	1594.79114	1385.07825	-1577.18250	1430.40405	1396.57520	-1630.57422	1121.32935	1387.57764	-1456.45776	1349.51074	1382.81750	-1425.57593	1180.69043	1487.09741	-1637.24597	1260.48303	1231.99121	-1500.97339	1386.12207	1153.56091	-1498.10071	1194.07971	1135.36511	-1473.57764	1074.36768	1131.86731	-1427.46814	952.53046	1157.84448	-1389.19885	839.16705	1107.35071	-1413.25964	841.34155	1112.91833	-1384.31213	761.86127	1547.51221	-1503.30640	1379.62158	1626.18921	-1509.59619	1160.22644	1643.27063	-1496.72998	1048.68103	1650.41211	-1480.88794	912.60364	1618.28149	-1451.49597	816.03094	1662.20483	-1482.50024	812.40662	1655.17847	-1460.03223	741.41760	1277.80811	-1494.75122	939.07031	1511.91321	-1476.30615	951.80194	1340.74951	-1649.79639	981.03540	1487.24048	-1635.74255	992.26874	1255.78723	-1588.95752	642.83960	1303.63220	-1587.25317	469.92365	1308.29004	-1648.18469	281.08633	1349.67053	-1660.79419	72.24210	1396.47705	-1699.22266	35.12875	1344.97546	-1513.47607	34.63339	1571.41113	-1465.04651	670.82904	1543.09839	-1401.03882	502.78403	1550.57800	-1467.10583	320.59659	1511.31750	-1525.55078	112.33922	1456.62549	-1572.53552	87.13170	1502.82520	-1399.86389	45.24264																		 
5	0.040	1332.65540	-1398.71265	1621.58386	1464.49915	-1412.51709	1628.90088	1323.44153	-1529.03613	1587.99670	1453.77881	-1538.75525	1594.27600	1384.78442	-1574.69861	1429.96753	1396.13843	-1627.61218	1120.75720	1387.64001	-1453.90833	1349.24634	1382.65759	-1422.73438	1180.51709	1486.63684	-1634.71619	1259.90027	1231.87573	-1498.33069	1385.92969	1153.05688	-1494.64087	1194.21155	1135.09155	-1468.07336	1074.44580	1132.09521	-1420.83350	953.13245	1158.13147	-1381.62341	840.21802	1107.79712	-1405.29883	842.00568	1114.05200	-1375.40698	762.76550	1547.35974	-1501.08704	1379.23938	1626.04199	-1508.05042	1159.86438	1643.01978	-1495.55664	1048.23169	1650.08948	-1480.23254	912.11865	1617.87390	-1451.29675	815.42914	1661.92627	-1482.10754	811.94635	1654.93372	-1459.96472	740.99255	1277.59802	-1491.72656	938.82330	1511.60962	-1473.34973	951.48627	1340.36438	-1646.69470	980.50256	1486.78467	-1632.67896	991.60260	1255.44568	-1586.34912	642.58661	1303.18323	-1586.11755	470.25644	1307.24548	-1646.51526	281.00403	1352.91907	-1664.75781	70.18686	1395.95544	-1698.78247	34.36518	1344.92419	-1513.43884	34.53050	1570.77197	-1461.39941	670.79413	1542.36108	-1397.35364	502.66257	1550.38928	-1458.93225	318.76993	1511.35400	-1511.44617	108.80614	1456.78442	-1557.96228	82.49250	1501.99841	-1383.95947	44.81684																		 
